<mxfile host="www.draw.io" modified="2020-01-04T02:53:34.141Z" agent="Mozilla/5.0 (Windows NT 10.0; Win64; x64) AppleWebKit/537.36 (KHTML, like Gecko) Chrome/79.0.3945.79 Safari/537.36" etag="zUbnhpUATFCVzQ623slC" version="12.4.8" type="github" pages="2">
  <diagram id="440-f5ZBlcjLqcvLJB9_" name="1-architecture">
    <mxGraphModel dx="1422" dy="761" grid="1" gridSize="10" guides="1" tooltips="1" connect="1" arrows="1" fold="1" page="1" pageScale="1" pageWidth="827" pageHeight="1169" math="0" shadow="0">
      <root>
        <mxCell id="0"/>
        <mxCell id="1" parent="0"/>
        <mxCell id="6CmvbCjReuZrtyEhAUID-1" value="" style="rounded=1;arcSize=10;strokeColor=#36393d;fillColor=#f9f7ed;strokeWidth=2;shadow=1;dashed=1;comic=1;glass=1;fontFamily=Comic Sans MS;" parent="1" vertex="1">
          <mxGeometry x="150" y="30" width="790" height="410" as="geometry"/>
        </mxCell>
        <mxCell id="EYcd0Octc-FusmAHvO8Q-9" style="edgeStyle=orthogonalEdgeStyle;rounded=1;orthogonalLoop=1;jettySize=auto;html=1;entryX=1.01;entryY=0.611;entryDx=0;entryDy=0;entryPerimeter=0;fontFamily=Comic Sans MS;" parent="1" source="EYcd0Octc-FusmAHvO8Q-2" target="EYcd0Octc-FusmAHvO8Q-3" edge="1">
          <mxGeometry relative="1" as="geometry">
            <Array as="points">
              <mxPoint x="380" y="240"/>
              <mxPoint x="380" y="240"/>
            </Array>
          </mxGeometry>
        </mxCell>
        <mxCell id="EYcd0Octc-FusmAHvO8Q-12" style="edgeStyle=orthogonalEdgeStyle;rounded=1;orthogonalLoop=1;jettySize=auto;html=1;fontFamily=Comic Sans MS;" parent="1" source="EYcd0Octc-FusmAHvO8Q-2" target="EYcd0Octc-FusmAHvO8Q-10" edge="1">
          <mxGeometry relative="1" as="geometry">
            <mxPoint x="750" y="230" as="targetPoint"/>
            <Array as="points">
              <mxPoint x="700" y="228"/>
              <mxPoint x="700" y="228"/>
            </Array>
          </mxGeometry>
        </mxCell>
        <mxCell id="EYcd0Octc-FusmAHvO8Q-2" value="" style="rounded=1;arcSize=10;strokeColor=#36393d;fillColor=#eeeeee;strokeWidth=2;shadow=1;comic=1;glass=1;gradientColor=none;fontFamily=Comic Sans MS;" parent="1" vertex="1">
          <mxGeometry x="435" y="80" width="230" height="300" as="geometry"/>
        </mxCell>
        <mxCell id="EYcd0Octc-FusmAHvO8Q-3" value="indexedDB" style="shape=datastore;whiteSpace=wrap;html=1;fillColor=#bac8d3;strokeColor=#23445d;shadow=1;gradientColor=none;fontFamily=Comic Sans MS;" parent="1" vertex="1">
          <mxGeometry x="240" y="185" width="100" height="90" as="geometry"/>
        </mxCell>
        <mxCell id="EYcd0Octc-FusmAHvO8Q-7" style="edgeStyle=orthogonalEdgeStyle;rounded=0;orthogonalLoop=1;jettySize=auto;html=1;fontFamily=Comic Sans MS;" parent="1" source="EYcd0Octc-FusmAHvO8Q-4" target="EYcd0Octc-FusmAHvO8Q-6" edge="1">
          <mxGeometry relative="1" as="geometry"/>
        </mxCell>
        <mxCell id="EYcd0Octc-FusmAHvO8Q-4" value="PC Client APP" style="shape=ext;rounded=1;html=1;whiteSpace=wrap;fillColor=#1ba1e2;strokeColor=#006EAF;fontColor=#ffffff;fontFamily=Comic Sans MS;comic=1;" parent="1" vertex="1">
          <mxGeometry x="490" y="140" width="120" height="80" as="geometry"/>
        </mxCell>
        <mxCell id="EYcd0Octc-FusmAHvO8Q-6" value="Node" style="shape=ext;rounded=1;html=1;whiteSpace=wrap;fillColor=#b0e3e6;strokeColor=#0e8088;fontFamily=Comic Sans MS;glass=0;comic=1;" parent="1" vertex="1">
          <mxGeometry x="490" y="260" width="120" height="80" as="geometry"/>
        </mxCell>
        <mxCell id="EYcd0Octc-FusmAHvO8Q-8" value="Built by Electron" style="text;html=1;strokeColor=none;fillColor=none;align=center;verticalAlign=middle;whiteSpace=wrap;rounded=0;fontFamily=Comic Sans MS;" parent="1" vertex="1">
          <mxGeometry x="495" y="100" width="110" height="20" as="geometry"/>
        </mxCell>
        <mxCell id="EYcd0Octc-FusmAHvO8Q-10" value="" style="shape=mxgraph.bpmn.service_task;html=1;outlineConnect=0;fillColor=#b1ddf0;strokeColor=#10739e;shadow=1;gradientColor=none;fontFamily=Comic Sans MS;" parent="1" vertex="1">
          <mxGeometry x="777" y="196" width="60" height="64" as="geometry"/>
        </mxCell>
        <mxCell id="EYcd0Octc-FusmAHvO8Q-11" value="DLL/WebAssembly" style="text;html=1;strokeColor=none;fillColor=none;align=center;verticalAlign=middle;whiteSpace=wrap;rounded=0;fontFamily=Comic Sans MS;" parent="1" vertex="1">
          <mxGeometry x="725.5" y="275" width="163" height="20" as="geometry"/>
        </mxCell>
      </root>
    </mxGraphModel>
  </diagram>
  <diagram id="uUKdZC8vY2VS82JyGWig" name="1-usecase">
    <mxGraphModel dx="2249" dy="1930" grid="1" gridSize="10" guides="1" tooltips="1" connect="1" arrows="1" fold="1" page="1" pageScale="1" pageWidth="827" pageHeight="1169" math="0" shadow="0">
      <root>
        <mxCell id="I-5notRdRxAF7zEgcXEE-0"/>
        <mxCell id="I-5notRdRxAF7zEgcXEE-1" parent="I-5notRdRxAF7zEgcXEE-0"/>
        <mxCell id="I-5notRdRxAF7zEgcXEE-4" style="orthogonalLoop=1;jettySize=auto;html=1;rounded=1;strokeColor=#000000;entryX=0;entryY=0.5;entryDx=0;entryDy=0;" edge="1" parent="I-5notRdRxAF7zEgcXEE-1" source="I-5notRdRxAF7zEgcXEE-2" target="I-5notRdRxAF7zEgcXEE-3">
          <mxGeometry relative="1" as="geometry"/>
        </mxCell>
        <mxCell id="I-5notRdRxAF7zEgcXEE-8" style="rounded=1;orthogonalLoop=1;jettySize=auto;html=1;entryX=0;entryY=0.5;entryDx=0;entryDy=0;strokeColor=#000000;" edge="1" parent="I-5notRdRxAF7zEgcXEE-1" source="I-5notRdRxAF7zEgcXEE-2" target="I-5notRdRxAF7zEgcXEE-7">
          <mxGeometry relative="1" as="geometry"/>
        </mxCell>
        <mxCell id="I-5notRdRxAF7zEgcXEE-10" style="rounded=1;orthogonalLoop=1;jettySize=auto;html=1;entryX=1;entryY=0.5;entryDx=0;entryDy=0;strokeColor=#000000;" edge="1" parent="I-5notRdRxAF7zEgcXEE-1" source="I-5notRdRxAF7zEgcXEE-2" target="I-5notRdRxAF7zEgcXEE-9">
          <mxGeometry relative="1" as="geometry"/>
        </mxCell>
        <mxCell id="I-5notRdRxAF7zEgcXEE-30" style="edgeStyle=none;rounded=1;orthogonalLoop=1;jettySize=auto;html=1;strokeColor=#000000;entryX=1;entryY=0.5;entryDx=0;entryDy=0;" edge="1" parent="I-5notRdRxAF7zEgcXEE-1" source="I-5notRdRxAF7zEgcXEE-2" target="I-5notRdRxAF7zEgcXEE-28">
          <mxGeometry relative="1" as="geometry"/>
        </mxCell>
        <mxCell id="I-5notRdRxAF7zEgcXEE-40" style="edgeStyle=none;rounded=1;orthogonalLoop=1;jettySize=auto;html=1;entryX=0;entryY=0.5;entryDx=0;entryDy=0;strokeColor=#000000;" edge="1" parent="I-5notRdRxAF7zEgcXEE-1" source="I-5notRdRxAF7zEgcXEE-2" target="I-5notRdRxAF7zEgcXEE-39">
          <mxGeometry relative="1" as="geometry"/>
        </mxCell>
        <mxCell id="I-5notRdRxAF7zEgcXEE-2" value="用户" style="shape=umlActor;verticalLabelPosition=bottom;labelBackgroundColor=#ffffff;verticalAlign=top;html=1;" vertex="1" parent="I-5notRdRxAF7zEgcXEE-1">
          <mxGeometry x="130" y="260" width="30" height="60" as="geometry"/>
        </mxCell>
        <mxCell id="I-5notRdRxAF7zEgcXEE-14" style="edgeStyle=none;rounded=1;orthogonalLoop=1;jettySize=auto;html=1;entryX=0;entryY=0.5;entryDx=0;entryDy=0;strokeColor=#000000;" edge="1" parent="I-5notRdRxAF7zEgcXEE-1" source="I-5notRdRxAF7zEgcXEE-3" target="I-5notRdRxAF7zEgcXEE-11">
          <mxGeometry relative="1" as="geometry"/>
        </mxCell>
        <mxCell id="I-5notRdRxAF7zEgcXEE-63" value="《include》" style="text;html=1;align=center;verticalAlign=middle;resizable=0;points=[];labelBackgroundColor=#ffffff;" vertex="1" connectable="0" parent="I-5notRdRxAF7zEgcXEE-14">
          <mxGeometry x="0.1293" relative="1" as="geometry">
            <mxPoint as="offset"/>
          </mxGeometry>
        </mxCell>
        <mxCell id="I-5notRdRxAF7zEgcXEE-16" value="" style="edgeStyle=none;rounded=1;orthogonalLoop=1;jettySize=auto;html=1;strokeColor=#000000;" edge="1" parent="I-5notRdRxAF7zEgcXEE-1" source="I-5notRdRxAF7zEgcXEE-3" target="I-5notRdRxAF7zEgcXEE-15">
          <mxGeometry relative="1" as="geometry"/>
        </mxCell>
        <mxCell id="I-5notRdRxAF7zEgcXEE-62" value="《include》" style="text;html=1;align=center;verticalAlign=middle;resizable=0;points=[];labelBackgroundColor=#ffffff;" vertex="1" connectable="0" parent="I-5notRdRxAF7zEgcXEE-16">
          <mxGeometry x="-0.2833" y="1" relative="1" as="geometry">
            <mxPoint as="offset"/>
          </mxGeometry>
        </mxCell>
        <mxCell id="I-5notRdRxAF7zEgcXEE-3" value="三维编织算法的模拟" style="ellipse;whiteSpace=wrap;html=1;gradientColor=none;" vertex="1" parent="I-5notRdRxAF7zEgcXEE-1">
          <mxGeometry x="300" y="40" width="140" height="70" as="geometry"/>
        </mxCell>
        <object label="" id="I-5notRdRxAF7zEgcXEE-43">
          <mxCell style="edgeStyle=none;rounded=1;orthogonalLoop=1;jettySize=auto;html=1;entryX=0.5;entryY=0;entryDx=0;entryDy=0;strokeColor=#000000;" edge="1" parent="I-5notRdRxAF7zEgcXEE-1" source="I-5notRdRxAF7zEgcXEE-15" target="I-5notRdRxAF7zEgcXEE-41">
            <mxGeometry relative="1" as="geometry"/>
          </mxCell>
        </object>
        <mxCell id="I-5notRdRxAF7zEgcXEE-50" value="《extend》" style="text;html=1;align=center;verticalAlign=middle;resizable=0;points=[];labelBackgroundColor=#ffffff;" vertex="1" connectable="0" parent="I-5notRdRxAF7zEgcXEE-43">
          <mxGeometry x="-0.5111" y="-2" relative="1" as="geometry">
            <mxPoint x="2" y="7" as="offset"/>
          </mxGeometry>
        </mxCell>
        <mxCell id="I-5notRdRxAF7zEgcXEE-15" value="输出外壳模型文件" style="ellipse;whiteSpace=wrap;html=1;gradientColor=none;" vertex="1" parent="I-5notRdRxAF7zEgcXEE-1">
          <mxGeometry x="560" y="40" width="140" height="70" as="geometry"/>
        </mxCell>
        <mxCell id="I-5notRdRxAF7zEgcXEE-32" value="" style="edgeStyle=none;rounded=1;orthogonalLoop=1;jettySize=auto;html=1;strokeColor=#000000;" edge="1" parent="I-5notRdRxAF7zEgcXEE-1" source="I-5notRdRxAF7zEgcXEE-11" target="I-5notRdRxAF7zEgcXEE-31">
          <mxGeometry relative="1" as="geometry"/>
        </mxCell>
        <mxCell id="I-5notRdRxAF7zEgcXEE-53" value="《include》" style="text;html=1;align=center;verticalAlign=middle;resizable=0;points=[];labelBackgroundColor=#ffffff;" vertex="1" connectable="0" parent="I-5notRdRxAF7zEgcXEE-32">
          <mxGeometry x="-0.3333" y="-2" relative="1" as="geometry">
            <mxPoint x="10" y="-2" as="offset"/>
          </mxGeometry>
        </mxCell>
        <mxCell id="I-5notRdRxAF7zEgcXEE-11" value="编织机运动模拟" style="ellipse;whiteSpace=wrap;html=1;gradientColor=none;" vertex="1" parent="I-5notRdRxAF7zEgcXEE-1">
          <mxGeometry x="560" y="-70" width="140" height="70" as="geometry"/>
        </mxCell>
        <mxCell id="I-5notRdRxAF7zEgcXEE-31" value="三维编织算法" style="ellipse;whiteSpace=wrap;html=1;gradientColor=none;" vertex="1" parent="I-5notRdRxAF7zEgcXEE-1">
          <mxGeometry x="790" y="-70" width="140" height="70" as="geometry"/>
        </mxCell>
        <mxCell id="I-5notRdRxAF7zEgcXEE-18" value="" style="edgeStyle=none;rounded=1;orthogonalLoop=1;jettySize=auto;html=1;strokeColor=#000000;" edge="1" parent="I-5notRdRxAF7zEgcXEE-1" source="I-5notRdRxAF7zEgcXEE-7" target="I-5notRdRxAF7zEgcXEE-17">
          <mxGeometry relative="1" as="geometry"/>
        </mxCell>
        <mxCell id="I-5notRdRxAF7zEgcXEE-59" value="《include》" style="text;html=1;align=center;verticalAlign=middle;resizable=0;points=[];labelBackgroundColor=#ffffff;" vertex="1" connectable="0" parent="I-5notRdRxAF7zEgcXEE-18">
          <mxGeometry x="0.2167" relative="1" as="geometry">
            <mxPoint as="offset"/>
          </mxGeometry>
        </mxCell>
        <mxCell id="I-5notRdRxAF7zEgcXEE-23" value="" style="edgeStyle=none;rounded=1;orthogonalLoop=1;jettySize=auto;html=1;strokeColor=#000000;entryX=0;entryY=0.5;entryDx=0;entryDy=0;" edge="1" parent="I-5notRdRxAF7zEgcXEE-1" source="I-5notRdRxAF7zEgcXEE-7" target="I-5notRdRxAF7zEgcXEE-22">
          <mxGeometry relative="1" as="geometry"/>
        </mxCell>
        <mxCell id="I-5notRdRxAF7zEgcXEE-61" value="《include》" style="text;html=1;align=center;verticalAlign=middle;resizable=0;points=[];labelBackgroundColor=#ffffff;" vertex="1" connectable="0" parent="I-5notRdRxAF7zEgcXEE-23">
          <mxGeometry x="0.3115" y="-1" relative="1" as="geometry">
            <mxPoint as="offset"/>
          </mxGeometry>
        </mxCell>
        <mxCell id="I-5notRdRxAF7zEgcXEE-34" value="" style="edgeStyle=none;rounded=1;orthogonalLoop=1;jettySize=auto;html=1;strokeColor=#000000;entryX=0;entryY=0.5;entryDx=0;entryDy=0;" edge="1" parent="I-5notRdRxAF7zEgcXEE-1" source="I-5notRdRxAF7zEgcXEE-7" target="I-5notRdRxAF7zEgcXEE-33">
          <mxGeometry relative="1" as="geometry"/>
        </mxCell>
        <mxCell id="I-5notRdRxAF7zEgcXEE-58" value="《include》" style="text;html=1;align=center;verticalAlign=middle;resizable=0;points=[];labelBackgroundColor=#ffffff;" vertex="1" connectable="0" parent="I-5notRdRxAF7zEgcXEE-34">
          <mxGeometry x="-0.2445" y="-4" relative="1" as="geometry">
            <mxPoint as="offset"/>
          </mxGeometry>
        </mxCell>
        <mxCell id="I-5notRdRxAF7zEgcXEE-7" value="内芯模型的管理" style="ellipse;whiteSpace=wrap;html=1;gradientColor=none;" vertex="1" parent="I-5notRdRxAF7zEgcXEE-1">
          <mxGeometry x="300" y="460" width="140" height="70" as="geometry"/>
        </mxCell>
        <mxCell id="I-5notRdRxAF7zEgcXEE-36" style="edgeStyle=none;rounded=1;orthogonalLoop=1;jettySize=auto;html=1;strokeColor=#000000;" edge="1" parent="I-5notRdRxAF7zEgcXEE-1" source="I-5notRdRxAF7zEgcXEE-33" target="I-5notRdRxAF7zEgcXEE-17">
          <mxGeometry relative="1" as="geometry"/>
        </mxCell>
        <mxCell id="I-5notRdRxAF7zEgcXEE-51" value="《extend》" style="text;html=1;align=center;verticalAlign=middle;resizable=0;points=[];labelBackgroundColor=#ffffff;" vertex="1" connectable="0" parent="I-5notRdRxAF7zEgcXEE-36">
          <mxGeometry x="0.44" y="3" relative="1" as="geometry">
            <mxPoint x="-3" y="-16" as="offset"/>
          </mxGeometry>
        </mxCell>
        <mxCell id="I-5notRdRxAF7zEgcXEE-33" value="显示内芯模型" style="ellipse;whiteSpace=wrap;html=1;gradientColor=none;" vertex="1" parent="I-5notRdRxAF7zEgcXEE-1">
          <mxGeometry x="560" y="350" width="140" height="70" as="geometry"/>
        </mxCell>
        <mxCell id="I-5notRdRxAF7zEgcXEE-22" value="删除内芯模型" style="ellipse;whiteSpace=wrap;html=1;gradientColor=none;" vertex="1" parent="I-5notRdRxAF7zEgcXEE-1">
          <mxGeometry x="560" y="580" width="140" height="70" as="geometry"/>
        </mxCell>
        <mxCell id="I-5notRdRxAF7zEgcXEE-38" value="" style="edgeStyle=none;rounded=1;orthogonalLoop=1;jettySize=auto;html=1;strokeColor=#000000;" edge="1" parent="I-5notRdRxAF7zEgcXEE-1" source="I-5notRdRxAF7zEgcXEE-17" target="I-5notRdRxAF7zEgcXEE-37">
          <mxGeometry relative="1" as="geometry"/>
        </mxCell>
        <mxCell id="I-5notRdRxAF7zEgcXEE-52" value="《include》" style="text;html=1;align=center;verticalAlign=middle;resizable=0;points=[];labelBackgroundColor=#ffffff;" vertex="1" connectable="0" parent="I-5notRdRxAF7zEgcXEE-38">
          <mxGeometry x="-0.3333" y="-3" relative="1" as="geometry">
            <mxPoint x="10" y="-3" as="offset"/>
          </mxGeometry>
        </mxCell>
        <mxCell id="I-5notRdRxAF7zEgcXEE-17" value="增加内芯模型" style="ellipse;whiteSpace=wrap;html=1;gradientColor=none;" vertex="1" parent="I-5notRdRxAF7zEgcXEE-1">
          <mxGeometry x="560" y="460" width="140" height="70" as="geometry"/>
        </mxCell>
        <mxCell id="I-5notRdRxAF7zEgcXEE-37" value="内芯模型有效性验证" style="ellipse;whiteSpace=wrap;html=1;gradientColor=none;" vertex="1" parent="I-5notRdRxAF7zEgcXEE-1">
          <mxGeometry x="790" y="470" width="140" height="70" as="geometry"/>
        </mxCell>
        <mxCell id="I-5notRdRxAF7zEgcXEE-25" value="" style="edgeStyle=none;rounded=1;orthogonalLoop=1;jettySize=auto;html=1;strokeColor=#000000;entryX=1;entryY=0.5;entryDx=0;entryDy=0;" edge="1" parent="I-5notRdRxAF7zEgcXEE-1" source="I-5notRdRxAF7zEgcXEE-9" target="I-5notRdRxAF7zEgcXEE-24">
          <mxGeometry relative="1" as="geometry"/>
        </mxCell>
        <mxCell id="I-5notRdRxAF7zEgcXEE-49" value="《include》" style="text;html=1;align=center;verticalAlign=middle;resizable=0;points=[];labelBackgroundColor=#ffffff;" vertex="1" connectable="0" parent="I-5notRdRxAF7zEgcXEE-25">
          <mxGeometry x="0.3118" relative="1" as="geometry">
            <mxPoint x="14.08" y="-10.63" as="offset"/>
          </mxGeometry>
        </mxCell>
        <mxCell id="I-5notRdRxAF7zEgcXEE-27" value="" style="edgeStyle=none;rounded=1;orthogonalLoop=1;jettySize=auto;html=1;strokeColor=#000000;entryX=1;entryY=0.5;entryDx=0;entryDy=0;" edge="1" parent="I-5notRdRxAF7zEgcXEE-1" source="I-5notRdRxAF7zEgcXEE-9" target="I-5notRdRxAF7zEgcXEE-26">
          <mxGeometry relative="1" as="geometry"/>
        </mxCell>
        <mxCell id="I-5notRdRxAF7zEgcXEE-47" value="《include》" style="text;html=1;align=center;verticalAlign=middle;resizable=0;points=[];labelBackgroundColor=#ffffff;" vertex="1" connectable="0" parent="I-5notRdRxAF7zEgcXEE-27">
          <mxGeometry x="0.213" y="1" relative="1" as="geometry">
            <mxPoint as="offset"/>
          </mxGeometry>
        </mxCell>
        <mxCell id="I-5notRdRxAF7zEgcXEE-9" value="人机交互模型观察" style="ellipse;whiteSpace=wrap;html=1;gradientColor=none;" vertex="1" parent="I-5notRdRxAF7zEgcXEE-1">
          <mxGeometry x="-150" y="460" width="140" height="70" as="geometry"/>
        </mxCell>
        <mxCell id="I-5notRdRxAF7zEgcXEE-26" value="改变纱线颜色" style="ellipse;whiteSpace=wrap;html=1;gradientColor=none;" vertex="1" parent="I-5notRdRxAF7zEgcXEE-1">
          <mxGeometry x="-370" y="350" width="140" height="70" as="geometry"/>
        </mxCell>
        <mxCell id="I-5notRdRxAF7zEgcXEE-24" value="切片观察" style="ellipse;whiteSpace=wrap;html=1;gradientColor=none;" vertex="1" parent="I-5notRdRxAF7zEgcXEE-1">
          <mxGeometry x="-370" y="580" width="140" height="70" as="geometry"/>
        </mxCell>
        <mxCell id="I-5notRdRxAF7zEgcXEE-28" value="编织外壳属性计算" style="ellipse;whiteSpace=wrap;html=1;gradientColor=none;" vertex="1" parent="I-5notRdRxAF7zEgcXEE-1">
          <mxGeometry x="-160" y="40" width="140" height="70" as="geometry"/>
        </mxCell>
        <mxCell id="I-5notRdRxAF7zEgcXEE-42" value="" style="edgeStyle=none;rounded=1;orthogonalLoop=1;jettySize=auto;html=1;strokeColor=#000000;entryX=0;entryY=0.5;entryDx=0;entryDy=0;" edge="1" parent="I-5notRdRxAF7zEgcXEE-1" source="I-5notRdRxAF7zEgcXEE-39" target="I-5notRdRxAF7zEgcXEE-41">
          <mxGeometry relative="1" as="geometry"/>
        </mxCell>
        <mxCell id="I-5notRdRxAF7zEgcXEE-54" value="《include》" style="text;html=1;align=center;verticalAlign=middle;resizable=0;points=[];labelBackgroundColor=#ffffff;" vertex="1" connectable="0" parent="I-5notRdRxAF7zEgcXEE-42">
          <mxGeometry x="0.3489" y="2" relative="1" as="geometry">
            <mxPoint as="offset"/>
          </mxGeometry>
        </mxCell>
        <mxCell id="I-5notRdRxAF7zEgcXEE-46" value="" style="edgeStyle=none;rounded=1;orthogonalLoop=1;jettySize=auto;html=1;strokeColor=#000000;" edge="1" parent="I-5notRdRxAF7zEgcXEE-1" source="I-5notRdRxAF7zEgcXEE-39" target="I-5notRdRxAF7zEgcXEE-45">
          <mxGeometry relative="1" as="geometry"/>
        </mxCell>
        <mxCell id="I-5notRdRxAF7zEgcXEE-55" value="《include》" style="text;html=1;align=center;verticalAlign=middle;resizable=0;points=[];labelBackgroundColor=#ffffff;" vertex="1" connectable="0" parent="I-5notRdRxAF7zEgcXEE-46">
          <mxGeometry x="0.3167" y="3" relative="1" as="geometry">
            <mxPoint as="offset"/>
          </mxGeometry>
        </mxCell>
        <mxCell id="I-5notRdRxAF7zEgcXEE-39" value="编织外壳模型管理" style="ellipse;whiteSpace=wrap;html=1;gradientColor=none;" vertex="1" parent="I-5notRdRxAF7zEgcXEE-1">
          <mxGeometry x="300" y="255" width="140" height="70" as="geometry"/>
        </mxCell>
        <mxCell id="I-5notRdRxAF7zEgcXEE-45" value="删除外壳模型" style="ellipse;whiteSpace=wrap;html=1;gradientColor=none;" vertex="1" parent="I-5notRdRxAF7zEgcXEE-1">
          <mxGeometry x="560" y="255" width="140" height="70" as="geometry"/>
        </mxCell>
        <mxCell id="I-5notRdRxAF7zEgcXEE-41" value="显示编织外壳模型" style="ellipse;whiteSpace=wrap;html=1;gradientColor=none;" vertex="1" parent="I-5notRdRxAF7zEgcXEE-1">
          <mxGeometry x="560" y="165" width="140" height="70" as="geometry"/>
        </mxCell>
      </root>
    </mxGraphModel>
  </diagram>
</mxfile>
